<svg id="Layer_1" data-name="Layer 1" xmlns="http://www.w3.org/2000/svg" viewBox="0 0 56 56"><defs><style>.cls-1{stroke:#004866;stroke-linejoin:round;fill-rule:evenodd;}</style></defs><title>achievements</title><path class="cls-1" d="M28,17.23C22.44,6.59,7.5,9.35,7.5,22.14c0,7.95,7.18,10.92,12,14.1s8,7.3,8.52,9.09c.45-1.76,4.15-6.09,8.48-9.18,4.73-3.37,12-6.15,12-14.1C48.5,9.61,32.91,7.28,28,17.23Zm9.72,14.55c-1,.62-2,1.26-3,1.93A39.71,39.71,0,0,0,28,39.84a32.85,32.85,0,0,0-6.89-6.1c-.75-.49-1.55-1-2.38-1.49-5-3-8.27-5.39-8.27-10.11,0-5.83,3.82-8.48,7.36-8.48a8.54,8.54,0,0,1,7.47,5l2.73,5.24,2.62-5.3A7.93,7.93,0,0,1,37.91,14c3.78,0,7.59,2.48,7.59,8C45.5,26.56,42.56,28.74,37.71,31.78Z"/></svg>