<svg id="Layer_1" data-name="Layer 1" xmlns="http://www.w3.org/2000/svg" viewBox="0 0 56 56"><defs><style>.cls-1{stroke:#004866;stroke-miterlimit:10;}</style></defs><title>achievements</title><path class="cls-1" d="M34.66,28.55a9.79,9.79,0,0,1-6.06-2.21l-2.36-1.85-1.67-1.38c-2.42-2-5.16-1.88-7.53.35l-1,.95a2.16,2.16,0,0,1-3-3.14l1-.95c3.95-3.71,9.14-3.92,13.24-.52L29,21.15l2.29,1.79c2.34,1.83,4.89,1.71,7.18-.32L40,21.22a2.16,2.16,0,1,1,2.87,3.23l-1.58,1.4A10,10,0,0,1,34.66,28.55Z"/><path class="cls-1" d="M34.66,38.62a9.79,9.79,0,0,1-6.06-2.21l-2.36-1.85-1.67-1.38c-2.42-2-5.16-1.88-7.53.35l-1,.95a2.16,2.16,0,0,1-3-3.14l1-.95c3.95-3.71,9.14-3.92,13.24-.52L29,31.22,31.26,33c2.34,1.83,4.89,1.71,7.18-.32L40,31.29a2.16,2.16,0,1,1,2.87,3.23l-1.58,1.4A10,10,0,0,1,34.66,38.62Z"/></svg>