<svg id="Layer_1" data-name="Layer 1" xmlns="http://www.w3.org/2000/svg" viewBox="0 0 56 56"><defs><style>.cls-1{fill:#004866;}</style></defs><title>achievements</title><path d="M34.74,47.4H21.36c-.91,0-1.14-.23-1.14-1.13v-.79c0-.79,0-1.59,0-2.38a4.75,4.75,0,0,1,4.82-4.73h.76l.64,0h0v0c0-1,0-2,0-3h0a10.18,10.18,0,0,1-6.75-4,10,10,0,0,1-2-4.77,7.82,7.82,0,0,1-6.89-6.82,12.14,12.14,0,0,1-.08-2c0-.25,0-.49,0-.74,0-.55,0-1.1,0-1.65,0-.85,0-1.7,0-2.55a1.06,1.06,0,0,1,.25-.8,1,1,0,0,1,.76-.26h5.84v-.28c0-.58,0-1.13,0-1.68a1.1,1.1,0,0,1,.25-.85,1.1,1.1,0,0,1,.82-.28H37.45a1,1,0,0,1,.77.26,1,1,0,0,1,.23.75c0,.33,0,.66,0,1s0,.69,0,1h5.75l.43,0,.21,0a.5.5,0,0,1,.47.5v1.07c0,.78,0,1.55,0,2.31,0,.4,0,.8,0,1.2a21.13,21.13,0,0,1-.13,3.15,7.75,7.75,0,0,1-6.81,6.55h0a10.6,10.6,0,0,1-8.76,8.83h-.07s0,0,0,0c0,1,0,2,0,3v0H30a10.19,10.19,0,0,1,2.08.17,4.69,4.69,0,0,1,3.65,4.63v1.18c0,.67,0,1.34,0,2a1,1,0,0,1-.25.78,1,1,0,0,1-.76.26Zm-2.83-3.07a3.85,3.85,0,0,0,.89-.06c0-.08,0-.56,0-1A1.74,1.74,0,0,0,31,41.42l-2.84,0-3.11,0a1.66,1.66,0,0,0-1.66,1.26,10,10,0,0,0-.1,1.42v.22h8.68ZM20.61,25.1a5.28,5.28,0,0,0,0,.9A7.42,7.42,0,0,0,28,32.37h0a8.06,8.06,0,0,0,1.42-.13,7.37,7.37,0,0,0,6-7q0-5.26,0-10.53s0-2.95,0-3H20.61Zm17.86-1.71A4.73,4.73,0,0,0,42.23,19c0-.87,0-1.74,0-2.61,0-.55,0-1.1,0-1.65H38.47ZM13.76,14.76c0,.47,0,.94,0,1.4,0,1,0,1.93,0,2.9a4.72,4.72,0,0,0,3.75,4.32V14.77h-.95l-.13-.5v.5Z"/><path class="cls-1" d="M18.62,9.1H37.47c.36,0,.5.1.48.49,0,.68,0,1.36,0,2,0,.4.11.52.5.52h5.75c.19,0,.38,0,.61,0,0,1.15,0,2.26,0,3.37a34.27,34.27,0,0,1-.12,4.3A7.22,7.22,0,0,1,38.3,26c-.32,0-.42.13-.46.45a10,10,0,0,1-8.32,8.38c-.36,0-.52.15-.51.57,0,1,0,2,0,3,0,.33.1.44.44.45A13.59,13.59,0,0,1,32,39a4.2,4.2,0,0,1,3.26,4.14c0,1.06,0,2.13,0,3.19,0,.39-.09.53-.5.53H21.36c-.63,0-.64,0-.64-.63,0-1,0-2.1,0-3.15a4.26,4.26,0,0,1,4.34-4.25h.74l.6,0h.09c.34,0,.48-.14.47-.54,0-1,0-2,0-3,0-.35-.14-.48-.47-.52A9.66,9.66,0,0,1,20.09,31a9.52,9.52,0,0,1-1.92-4.53A.47.47,0,0,0,17.7,26a7.25,7.25,0,0,1-6.42-6.35,19.15,19.15,0,0,1-.06-2.71c0-1.4,0-2.81,0-4.21,0-.41.1-.55.51-.55h6.34c0-.88,0-1.68,0-2.48,0-.45.11-.61.57-.61M28,32.86a8.53,8.53,0,0,0,1.5-.14,7.85,7.85,0,0,0,6.38-7.51q0-6.7,0-13.41c0-.19,0-.38,0-.6H20.11v.65q0,6.49,0,13a7.71,7.71,0,0,0,0,1.26A7.92,7.92,0,0,0,28,32.86m13.16-18.6H38V24A5.24,5.24,0,0,0,42.73,19c.05-1.45,0-2.9,0-4.35,0-.34-.12-.43-.43-.43H41.17M18,24V14.32a.7.7,0,0,0-.16,0H13.62c-.35,0-.37.2-.36.46,0,1.45,0,2.91,0,4.36A5.23,5.23,0,0,0,18,24m4.68,20.87h9.2c1.45,0,1.44,0,1.34-1.62A2.24,2.24,0,0,0,31,40.92l-2.84,0-3.12,0a2.14,2.14,0,0,0-2.14,1.68,19.7,19.7,0,0,0-.14,2.23M18.62,8.1a1.6,1.6,0,0,0-1.18.44,1.58,1.58,0,0,0-.39,1.21c0,.47,0,.95,0,1.44H11.74a1.4,1.4,0,0,0-1.53,1.57c0,.85,0,1.71,0,2.56,0,.55,0,1.09,0,1.64,0,.24,0,.49,0,.73a12.54,12.54,0,0,0,.08,2.12,8.28,8.28,0,0,0,6.95,7.14,10.51,10.51,0,0,0,2.06,4.68A10.65,10.65,0,0,0,26,35.73c0,.8,0,1.49,0,2.13H25a5.23,5.23,0,0,0-5.31,5.2c0,.81,0,1.62,0,2.41v.78c0,1.17.46,1.63,1.64,1.63H34.75a1.52,1.52,0,0,0,1.12-.41,1.55,1.55,0,0,0,.39-1.14c0-.67,0-1.33,0-2,0-.39,0-.79,0-1.18a5.19,5.19,0,0,0-4-5.11A10.57,10.57,0,0,0,30,37.87c0-.7,0-1.42,0-2.14a11.13,11.13,0,0,0,8.75-8.82A8.24,8.24,0,0,0,45.66,20a21.56,21.56,0,0,0,.13-3.23c0-.4,0-.8,0-1.2,0-.77,0-1.54,0-2.33V12.18a1,1,0,0,0-.94-1h-.21l-.46,0H38.95c0-.18,0-.36,0-.54s0-.64,0-1a1.46,1.46,0,0,0-.37-1.12,1.49,1.49,0,0,0-1.11-.42H18.62Zm2.49,4.11H34.9V15q0,5.11,0,10.22a6.85,6.85,0,0,1-5.55,6.53,7.56,7.56,0,0,1-1.33.12,6.92,6.92,0,0,1-6.86-5.94,4.92,4.92,0,0,1,0-.82v-.27q0-4.82,0-9.64v-3ZM39,22.72V15.26h2.78c0,.38,0,.77,0,1.15,0,.85,0,1.74,0,2.59A4.2,4.2,0,0,1,39,22.72ZM17,22.72A4.19,4.19,0,0,1,14.28,19c0-1,0-1.94,0-2.89q0-.45,0-.89H17v7.45Zm6.72,21.11a7.76,7.76,0,0,1,.09-1.06A1.15,1.15,0,0,1,25,41.92l3.11,0,2.83,0c.81,0,1.25.47,1.31,1.36,0,.19,0,.38,0,.55H23.75Z"/></svg>