<svg id="Layer_1" data-name="Layer 1" xmlns="http://www.w3.org/2000/svg" viewBox="0 0 56 56"><defs><style>.cls-1{stroke:#004866;stroke-linejoin:round;}</style></defs><title>achievements</title><path class="cls-1" d="M21.7,42.18a2.37,2.37,0,0,0-.12.22,2.16,2.16,0,0,1-2.44,1.69H13.08a2.09,2.09,0,0,1-2.23-2.23q0-7.43,0-14.86a2.09,2.09,0,0,1,2.22-2.24c1.93,0,3.86,0,5.79,0a2.48,2.48,0,0,1,2.48,1.1,2.51,2.51,0,0,0,.33-.19,22,22,0,0,0,4.08-4.34,9.62,9.62,0,0,0,1.51-4.19c.18-1.17.43-2.34.63-3.51a1.55,1.55,0,0,1,.84-1.18,4.6,4.6,0,0,1,2.89-.5,2.37,2.37,0,0,1,1.73,1.34,8.85,8.85,0,0,1,1,3.59,20.62,20.62,0,0,1-.55,7.43c-.1.38,0,.47.38.46,2.27,0,4.55,0,6.82,0a6.19,6.19,0,0,1,1.79.28A3.22,3.22,0,0,1,44,30.67a.49.49,0,0,0-.11.76,2.55,2.55,0,0,1-.56,3.42,1.21,1.21,0,0,0-.41,1.4,3,3,0,0,1-1.63,3.55c-.3.16-.46.32-.42.68.19,1.77-1.5,3.34-3.22,3.52a13.64,13.64,0,0,1-1.38.06c-2.84,0-5.67,0-8.51,0a8.55,8.55,0,0,1-4.08-.95C23,42.79,22.36,42.5,21.7,42.18Zm-.1-8c0,1.74,0,3.48,0,5.22a.62.62,0,0,0,.25.48c1,.49,2.07,1,3.13,1.39a6.18,6.18,0,0,0,2,.54c3.33.06,6.65,0,10,0a2.82,2.82,0,0,0,.87-.14,1,1,0,0,0,.75-1.25c0-.31-.11-.62-.14-.93a.76.76,0,0,1,.57-1c.31-.14.64-.25.94-.41a1.16,1.16,0,0,0,.67-1.48,6.74,6.74,0,0,0-.36-1,1,1,0,0,1,.48-1.45c.18-.1.37-.19.55-.3A1.32,1.32,0,0,0,42,32.17a5.43,5.43,0,0,0-.57-1c-.32-.51-.28-.82.19-1.19.21-.16.44-.31.65-.48a1.39,1.39,0,0,0,.59-1.36,1.24,1.24,0,0,0-1-1A5.27,5.27,0,0,0,40.54,27c-3.09,0-6.18,0-9.27,0a1.08,1.08,0,0,1-1.16-1,1.07,1.07,0,0,1,1-1.18.43.43,0,0,0,.42-.36,18.86,18.86,0,0,0,.49-8.3,9.19,9.19,0,0,0-.5-1.66c-.16-.44-.55-.36-.91-.32s-.56.14-.62.54c-.13.88-.37,1.75-.47,2.63A12.46,12.46,0,0,1,26.43,24,28.82,28.82,0,0,1,22,28.25a.84.84,0,0,0-.37.75C21.61,30.73,21.6,32.45,21.6,34.18ZM13,34.39c0,2.34,0,4.67,0,7,0,.38.09.52.49.52q2.7,0,5.39,0c.41,0,.5-.14.49-.52q0-7,0-13.92c0-.43-.15-.52-.54-.52-1.77,0-3.54,0-5.3,0-.45,0-.54.15-.54.56C13,29.81,13,32.1,13,34.39Z"/></svg>