<svg id="Layer_1" data-name="Layer 1" xmlns="http://www.w3.org/2000/svg" viewBox="0 0 56 56"><defs><style>.cls-1{stroke:#004866;stroke-linejoin:round;}</style></defs><title>achievements</title><path class="cls-1" d="M9.88,38.86a1.79,1.79,0,0,1-1.79-1.79V27.85a3.63,3.63,0,0,1,3.63-3.63H33.1a1.79,1.79,0,1,1,0,3.58H11.72a.05.05,0,0,0-.05.05v9.21A1.79,1.79,0,0,1,9.88,38.86Z"/><path class="cls-1" d="M19.56,23.15a6.87,6.87,0,1,1,6.87-6.87A6.88,6.88,0,0,1,19.56,23.15Zm0-10.16a3.29,3.29,0,1,0,3.29,3.29A3.3,3.3,0,0,0,19.56,13Z"/><path class="cls-1" d="M25,46.87a1.79,1.79,0,0,1-1.79-1.79V35.64A3.62,3.62,0,0,0,19.62,32H19.5a3.62,3.62,0,0,0-3.62,3.62v9.44a1.79,1.79,0,0,1-3.58,0V35.64a7.2,7.2,0,0,1,7.2-7.2h.12a7.2,7.2,0,0,1,7.2,7.2v9.44A1.79,1.79,0,0,1,25,46.87Z"/><path class="cls-1" d="M44.28,32.37H28a1.79,1.79,0,1,1,0-3.58H44.28a.05.05,0,0,0,.05-.05V22.9a1.79,1.79,0,0,1,3.58,0v5.84A3.63,3.63,0,0,1,44.28,32.37Z"/><path class="cls-1" d="M38.38,23.15a6.87,6.87,0,1,1,6.87-6.87A6.88,6.88,0,0,1,38.38,23.15Zm0-10.16a3.29,3.29,0,1,0,3.29,3.29A3.3,3.3,0,0,0,38.38,13Z"/><path class="cls-1" d="M32.91,46.59a1.79,1.79,0,0,1-1.79-1.79V35.71a1.79,1.79,0,0,1,3.58,0V44.8A1.79,1.79,0,0,1,32.91,46.59Z"/><path class="cls-1" d="M43.85,46.59a1.79,1.79,0,0,1-1.79-1.79V35.71a1.79,1.79,0,0,1,3.58,0V44.8A1.79,1.79,0,0,1,43.85,46.59Z"/></svg>