<svg id="Layer_1" data-name="Layer 1" xmlns="http://www.w3.org/2000/svg" viewBox="0 0 56 56"><defs><style>.cls-1{stroke:#004866;stroke-linejoin:round;}</style></defs><title>achievements</title><path class="cls-1" d="M16.06,41.62a1.9,1.9,0,0,1-1.9-1.9v-9.8A3.87,3.87,0,0,1,18,26.06H32.16a1.53,1.53,0,0,0,1.42-1L38.1,8.25a1.9,1.9,0,1,1,3.68,1l-4.57,17,0,.07a5.35,5.35,0,0,1-5,3.55H18a.06.06,0,0,0-.06.06v9.8A1.9,1.9,0,0,1,16.06,41.62Z"/><path class="cls-1" d="M26.06,25.6a7.31,7.31,0,1,1,7.31-7.31A7.32,7.32,0,0,1,26.06,25.6Zm0-10.81a3.5,3.5,0,1,0,3.5,3.5A3.51,3.51,0,0,0,26.06,14.79Z"/><path class="cls-1" d="M31.88,49.16a1.9,1.9,0,0,1-1.9-1.9v-9a3.85,3.85,0,0,0-3.85-3.85H26a3.85,3.85,0,0,0-3.85,3.85v9a1.9,1.9,0,1,1-3.81,0v-9A7.66,7.66,0,0,1,26,30.62h.13a7.66,7.66,0,0,1,7.66,7.66v9A1.9,1.9,0,0,1,31.88,49.16Z"/></svg>