<svg id="Layer_1" data-name="Layer 1" xmlns="http://www.w3.org/2000/svg" viewBox="0 0 56 56"><defs><style>.cls-1{fill:none;stroke:#004866;stroke-linejoin:round;}</style></defs><title>achievements</title><path d="M40.33,30.54a1.46,1.46,0,0,0-2,1.45q0,5,0,10a1.47,1.47,0,0,1-1.58,1.59H13.61A1.46,1.46,0,0,1,12,42q0-11.57,0-23.14a2.13,2.13,0,0,1,0-.44,1.45,1.45,0,0,1,1.52-1.17h10a1.47,1.47,0,1,0,0-2.93h-10a4.39,4.39,0,0,0-4.49,4.49q0,11.6,0,23.21a4.9,4.9,0,0,0,.16,1.25,4.36,4.36,0,0,0,4.32,3.24H36.67a5.47,5.47,0,0,0,1.06-.09,4.37,4.37,0,0,0,3.57-4.37c0-1.65,0-3.29,0-4.94s0-3.41,0-5.11A1.5,1.5,0,0,0,40.33,30.54ZM45.2,9.45H36.88a2.77,2.77,0,0,0-.41,0,1.46,1.46,0,0,0,.2,2.91H41.8l.07.11a2.84,2.84,0,0,0-.33.25l-17,17a4,4,0,0,0-.33.35,1.45,1.45,0,0,0,.73,2.3,1.5,1.5,0,0,0,1.58-.48L43.64,14.78l.33-.31v.45c0,1.58,0,3.15,0,4.73a1.47,1.47,0,1,0,2.93-.08q0-4.22,0-8.43A1.51,1.51,0,0,0,45.2,9.45Z"/><path class="cls-1" d="M40.33,30.54a1.46,1.46,0,0,0-2,1.45q0,5,0,10a1.47,1.47,0,0,1-1.58,1.59H13.61A1.46,1.46,0,0,1,12,42q0-11.57,0-23.14a2.13,2.13,0,0,1,0-.44,1.45,1.45,0,0,1,1.52-1.17h10a1.47,1.47,0,1,0,0-2.93h-10a4.39,4.39,0,0,0-4.49,4.49q0,11.6,0,23.21a4.9,4.9,0,0,0,.16,1.25,4.36,4.36,0,0,0,4.32,3.24H36.67a5.47,5.47,0,0,0,1.06-.09,4.37,4.37,0,0,0,3.57-4.37c0-1.65,0-3.29,0-4.94s0-3.41,0-5.11A1.5,1.5,0,0,0,40.33,30.54ZM45.2,9.45H36.88a2.77,2.77,0,0,0-.41,0,1.46,1.46,0,0,0,.2,2.91H41.8l.07.11a2.84,2.84,0,0,0-.33.25l-17,17a4,4,0,0,0-.33.35,1.45,1.45,0,0,0,.73,2.3,1.5,1.5,0,0,0,1.58-.48L43.64,14.78l.33-.31v.45c0,1.58,0,3.15,0,4.73a1.47,1.47,0,1,0,2.93-.08q0-4.22,0-8.43A1.51,1.51,0,0,0,45.2,9.45Z"/></svg>