<svg id="Layer_1" data-name="Layer 1" xmlns="http://www.w3.org/2000/svg" viewBox="0 0 56 56"><defs><style>.cls-1{fill:none;}.cls-1,.cls-2{stroke:#004866;stroke-linecap:round;stroke-miterlimit:10;}</style></defs><title>achievements</title><path d="M47.64,25.55c-1.1,0-2.21,0-3.31,0H11.79c-1.14,0-2.29,0-3.43,0a1.08,1.08,0,0,0-1.07.59V44.6a3.68,3.68,0,0,0,1.41,2.16,3.51,3.51,0,0,0,2.06.61H40.1c1.7,0,3.39,0,5.09,0a3.36,3.36,0,0,0,3.43-2.55l.08-.23V26.14A1.08,1.08,0,0,0,47.64,25.55ZM24.3,27.29q3.68,0,7.36,0c.38,0,.47.13.47.49,0,1.31,0,2.61,0,3.92h0c0,1.27,0,2.53,0,3.8a1.62,1.62,0,0,1-1.73,1.78q-2.4,0-4.81,0a1.61,1.61,0,0,1-1.69-1.72c0-2.61,0-5.22,0-7.84C23.88,27.38,24,27.29,24.3,27.29ZM25.59,39c1.64,0,3.29,0,4.93,0a3.35,3.35,0,0,0,3.3-3.34c0-1.51,0-3,0-4.53,0-.38.12-.48.49-.48,3,0,6,0,8.94,0,.46,0,.46.24.46.56q0,4.63,0,9.27c0,.44,0,.87,0,1.31s-.1.55-.52.54c-3.49,0-7,0-10.47,0H28q-7.58,0-15.16,0c-.4,0-.54-.09-.54-.52q0-5.33,0-10.66c0-.4.14-.5.52-.5q4.43,0,8.86,0c.41,0,.53.11.52.53,0,1.44,0,2.89,0,4.33A3.33,3.33,0,0,0,25.59,39ZM47,42c0,.65,0,1.31,0,2a1.6,1.6,0,0,1-1.69,1.68H10.87A1.68,1.68,0,0,1,9,43.74Q9,35.8,9,27.86c0-.57,0-.57.55-.57,4,0,8.09,0,12.13,0,.42,0,.52.13.51.53,0,1.08,0,1.09-1.08,1.09h-9.3a2,2,0,0,0-.85.18c-.32.16-.36.51-.36.85q0,4.23,0,8.45,0,2.27,0,4.53c0,.78.3,1.09,1.08,1.09H44.21c.94,0,1.19-.26,1.19-1.22q0-6.37,0-12.74c0-.88-.26-1.16-1.12-1.16-3.32,0-6.63,0-9.95,0-.42,0-.52-.13-.52-.53,0-1.09,0-1.09,1.09-1.09H46.43c.58,0,.58,0,.59.58Q47,34.93,47,42ZM27.16,33.76c0,.15,0,.3,0,.45h0c0,.35,0,.71,0,1.06s.11.39.38.37.62,0,.93,0,.38-.09.38-.38c0-.61,0-1.22,0-1.83a1,1,0,0,1,.42-.93,2,2,0,1,0-2.63-3,2,2,0,0,0,0,2.9A1.46,1.46,0,0,1,27.16,33.76Z"/><path class="cls-1" d="M47.64,25.55c-1.1,0-2.21,0-3.31,0H11.79c-1.14,0-2.29,0-3.43,0a1.08,1.08,0,0,0-1.07.59V44.6a3.68,3.68,0,0,0,1.41,2.16,3.51,3.51,0,0,0,2.06.61H40.1c1.7,0,3.39,0,5.09,0a3.36,3.36,0,0,0,3.43-2.55l.08-.23V26.14A1.08,1.08,0,0,0,47.64,25.55ZM24.3,27.29q3.68,0,7.36,0c.38,0,.47.13.47.49,0,1.31,0,2.61,0,3.92h0c0,1.27,0,2.53,0,3.8a1.62,1.62,0,0,1-1.73,1.78q-2.4,0-4.81,0a1.61,1.61,0,0,1-1.69-1.72c0-2.61,0-5.22,0-7.84C23.88,27.38,24,27.29,24.3,27.29ZM25.59,39c1.64,0,3.29,0,4.93,0a3.35,3.35,0,0,0,3.3-3.34c0-1.51,0-3,0-4.53,0-.38.12-.48.49-.48,3,0,6,0,8.94,0,.46,0,.46.24.46.56q0,4.63,0,9.27c0,.44,0,.87,0,1.31s-.1.55-.52.54c-3.49,0-7,0-10.47,0H28q-7.58,0-15.16,0c-.4,0-.54-.09-.54-.52q0-5.33,0-10.66c0-.4.14-.5.52-.5q4.43,0,8.86,0c.41,0,.53.11.52.53,0,1.44,0,2.89,0,4.33A3.33,3.33,0,0,0,25.59,39ZM47,42c0,.65,0,1.31,0,2a1.6,1.6,0,0,1-1.69,1.68H10.87A1.68,1.68,0,0,1,9,43.74Q9,35.8,9,27.86c0-.57,0-.57.55-.57,4,0,8.09,0,12.13,0,.42,0,.52.13.51.53,0,1.08,0,1.09-1.08,1.09h-9.3a2,2,0,0,0-.85.18c-.32.16-.36.51-.36.85q0,4.23,0,8.45,0,2.27,0,4.53c0,.78.3,1.09,1.08,1.09H44.21c.94,0,1.19-.26,1.19-1.22q0-6.37,0-12.74c0-.88-.26-1.16-1.12-1.16-3.32,0-6.63,0-9.95,0-.42,0-.52-.13-.52-.53,0-1.09,0-1.09,1.09-1.09H46.43c.58,0,.58,0,.59.58Q47,34.93,47,42ZM27.16,33.76c0,.15,0,.3,0,.45h0c0,.35,0,.71,0,1.06s.11.39.38.37.62,0,.93,0,.38-.09.38-.38c0-.61,0-1.22,0-1.83a1,1,0,0,1,.42-.93,2,2,0,1,0-2.63-3,2,2,0,0,0,0,2.9A1.46,1.46,0,0,1,27.16,33.76Z"/><path class="cls-2" d="M34.59,24.8H21.14a1,1,0,0,1-.92-.64c0-.07-2.48-6.54-3.71-9.32a1,1,0,0,1,1.2-1.34c.63.2,1.53.41,2.4.61s1.83.43,2.52.65a1,1,0,0,1,.6,1.35c-.45,1-.26,1.15-.18,1.21a1.13,1.13,0,0,0,.6.18,1,1,0,0,0,.68-.15,1.24,1.24,0,0,0,.28-.51c.13-.38.06-.53-.4-1.17l-.28-.39a1,1,0,0,1,0-1.06L27,9.1a1,1,0,0,1,1.69,0l3.13,5.17a1,1,0,0,1-.09,1.15c-.59.71-.8,1-.68,1.45a.86.86,0,0,0,.5.56,1.15,1.15,0,0,0,1,0,.37.37,0,0,0,.22-.23,1.39,1.39,0,0,0-.23-1h0a1,1,0,0,1,.89-1.49c.68-.12,4.14-1.08,4.54-1.21a1,1,0,0,1,1,.24l0,0a1,1,0,0,1,.2,1.1c-1.22,2.73-3.67,9.2-3.69,9.27A1,1,0,0,1,34.59,24.8Zm-12.77-2H33.91c.51-1.33,1.71-4.46,2.7-6.87l-.64.17-1.26.33a2.76,2.76,0,0,1,0,1.27,2.33,2.33,0,0,1-1.23,1.45,3.14,3.14,0,0,1-2.65.07,2.85,2.85,0,0,1-1.61-1.83,3,3,0,0,1,.62-2.71l-1.93-3.18L25.94,14.7a2.82,2.82,0,0,1,.54,2.81,3.1,3.1,0,0,1-.84,1.34,2.88,2.88,0,0,1-2.12.64,3,3,0,0,1-1.69-.6,2.23,2.23,0,0,1-.86-2,3.32,3.32,0,0,1,.08-.52L19.67,16l-.56-.13C20.11,18.34,21.32,21.48,21.83,22.82Z"/></svg>