<svg id="Layer_1" data-name="Layer 1" xmlns="http://www.w3.org/2000/svg" viewBox="0 0 56 56"><defs><style>.cls-1{stroke:#004866;stroke-linejoin:round;}</style></defs><title>achievements</title><path class="cls-1" d="M35.87,36.54c-.43-.26-.73-.45-1-.61a1.46,1.46,0,0,1,0-2.63c1.6-.85,3.17-1.76,4.72-2.71A1.5,1.5,0,0,1,41.91,32c0,1.87,0,3.73,0,5.6a1.38,1.38,0,0,1-2,1.28,7.62,7.62,0,0,1-1-.6c-.3-.21-.5-.16-.75.1a13.28,13.28,0,0,1-5.61,3.34,13.83,13.83,0,0,1-13.14-2.46A13.4,13.4,0,0,1,14,29.2C13.66,23,16.2,18.37,21.56,15.4a13.39,13.39,0,0,1,12.32-.48,13.88,13.88,0,0,1,8,9.24,1.4,1.4,0,0,1-1.55,1.94c-.7-.08-1-.58-1.23-1.18A19.77,19.77,0,0,0,38,22.28a10.81,10.81,0,0,0-7.67-5.47,10.93,10.93,0,0,0-9.69,2.7,11,11,0,0,0-3.73,7.15,11.36,11.36,0,0,0,8,12.28,11.12,11.12,0,0,0,10.6-2.13Z"/></svg>