<svg id="Layer_1" data-name="Layer 1" xmlns="http://www.w3.org/2000/svg" viewBox="0 0 56 56"><defs><style>.cls-1{fill:none;stroke:#004866;stroke-linejoin:round;}.cls-2{fill:#004866;}</style></defs><title>achievements</title><path d="M41,30.19a1.5,1.5,0,0,0-2,1.48q0,5.13,0,10.26a1.5,1.5,0,0,1-1.61,1.62H13.71a1.5,1.5,0,0,1-1.61-1.62q0-11.82,0-23.64a2.16,2.16,0,0,1,0-.45,1.48,1.48,0,0,1,1.55-1.19H24a1.5,1.5,0,1,0,0-3H13.69a4.48,4.48,0,0,0-4.58,4.59q0,11.86,0,23.71a5,5,0,0,0,.17,1.28,4.45,4.45,0,0,0,4.42,3.31H37.27a5.59,5.59,0,0,0,1.08-.09A4.47,4.47,0,0,0,42,42c0-1.68,0-3.36,0-5s0-3.48,0-5.22A1.53,1.53,0,0,0,41,30.19ZM45.17,9.45H36.66a2.85,2.85,0,0,0-.42,0,1.49,1.49,0,0,0,.2,3h5.25l.08.11a2.89,2.89,0,0,0-.33.25L34,20.27a4.11,4.11,0,0,0-.34.36A1.48,1.48,0,0,0,34.37,23,1.53,1.53,0,0,0,36,22.48l7.58-7.59.33-.31V15c0,1.61,0,3.22,0,4.83a1.5,1.5,0,1,0,3-.08q0-4.31,0-8.61A1.55,1.55,0,0,0,45.17,9.45Z"/><path class="cls-1" d="M41,30.19a1.5,1.5,0,0,0-2,1.48q0,5.13,0,10.26a1.5,1.5,0,0,1-1.61,1.62H13.71a1.5,1.5,0,0,1-1.61-1.62q0-11.82,0-23.64a2.16,2.16,0,0,1,0-.45,1.48,1.48,0,0,1,1.55-1.19H24a1.5,1.5,0,1,0,0-3H13.69a4.48,4.48,0,0,0-4.58,4.59q0,11.86,0,23.71a5,5,0,0,0,.17,1.28,4.45,4.45,0,0,0,4.42,3.31H37.27a5.59,5.59,0,0,0,1.08-.09A4.47,4.47,0,0,0,42,42c0-1.68,0-3.36,0-5s0-3.48,0-5.22A1.53,1.53,0,0,0,41,30.19ZM45.17,9.45H36.66a2.85,2.85,0,0,0-.42,0,1.49,1.49,0,0,0,.2,3h5.25l.08.11a2.89,2.89,0,0,0-.33.25L34,20.27a4.11,4.11,0,0,0-.34.36A1.48,1.48,0,0,0,34.37,23,1.53,1.53,0,0,0,36,22.48l7.58-7.59.33-.31V15c0,1.61,0,3.22,0,4.83a1.5,1.5,0,1,0,3-.08q0-4.31,0-8.61A1.55,1.55,0,0,0,45.17,9.45Z"/><path d="M17,43.59a.5.5,0,0,1-.5-.5V39.53H13a.5.5,0,0,1-.5-.5V37.67a.5.5,0,0,1,.5-.5h3.44v-4H13a.5.5,0,0,1-.5-.5V31a.5.5,0,0,1,.5-.5h3.44V20a.5.5,0,0,1,.5-.5H29.36a.5.5,0,0,1,.5.5V32.65a.5.5,0,0,1-.5.5H19v4h9a.5.5,0,0,1,.5.5V39a.5.5,0,0,1-.5.5H19v3.57a.5.5,0,0,1-.5.5ZM27.49,30.46V21.87H19v8.59Z"/><path class="cls-2" d="M29.36,20V32.65H18.48v5H28V39H18.48v4.07H17V39H13V37.67H17v-5H13V31H17V20H29.36M18.48,31H28V21.37H18.48V31M29.36,19H17a1,1,0,0,0-1,1V30H13a1,1,0,0,0-1,1v1.7a1,1,0,0,0,1,1H16v3H13a1,1,0,0,0-1,1V39a1,1,0,0,0,1,1H16v3.07a1,1,0,0,0,1,1h1.5a1,1,0,0,0,1-1V40H28a1,1,0,0,0,1-1V37.67a1,1,0,0,0-1-1H19.48v-3h9.87a1,1,0,0,0,1-1V20a1,1,0,0,0-1-1Zm-9.87,3.39H27V30H19.48V22.37Z"/></svg>