<svg id="Layer_1" data-name="Layer 1" xmlns="http://www.w3.org/2000/svg" viewBox="0 0 56 56"><defs><style>.cls-1{stroke:#004866;stroke-linecap:round;stroke-miterlimit:10;}</style></defs><title>achievements</title><path class="cls-1" d="M48.19,18.83a1.06,1.06,0,0,1,.11-.11v-1c-1-1.57-2-3.12-2.93-4.71a7.43,7.43,0,0,0-6.76-3.86c-7.12,0-14.24,0-21.36,0a7.23,7.23,0,0,0-6.52,3.7c-.91,1.51-1.81,3-2.72,4.56-.09.16-.21.31-.31.46v.56l4.79,7.08c-.17,0-.28,0-.39,0-1.12,0-2.24,0-3.36,0a1.06,1.06,0,0,0-1,.57v18.1a3.6,3.6,0,0,0,1.39,2.12,3.44,3.44,0,0,0,2,.6H39.86c1.66,0,3.33,0,5,0a3.3,3.3,0,0,0,3.37-2.5l.08-.22V26.08a1.06,1.06,0,0,0-1-.57c-1.08,0-2.17,0-3.25,0h-.48a3.29,3.29,0,0,1,.16-.3Zm-10.06-8a5.67,5.67,0,0,1,5.53,2.58c.78,1.17,1.44,2.42,2.16,3.64a2.33,2.33,0,0,1,.11.29c-1.21,0-2.34,0-3.47,0-.14,0-.31-.19-.39-.33-.83-1.38-1.63-2.77-2.49-4.14-.43-.69-1-1.33-1.45-2Zm-15.37,0c3.53,0,7.06,0,10.58,0a5.35,5.35,0,0,1,4.59,2.51c.8,1.21,1.5,2.48,2.24,3.73a2,2,0,0,1,.1.24c-.18,0-.33,0-.48,0H34.32c-.61,0-.61,0-.61-.61a2.49,2.49,0,0,0-1.94-2.62,2.69,2.69,0,0,0-.59-.05H25a2.49,2.49,0,0,0-2.74,2.78c0,.42-.13.51-.52.51-1.86,0-3.73,0-5.59,0l-.41,0c0-.09,0-.12,0-.14.84-1.4,1.61-2.86,2.56-4.18A5.23,5.23,0,0,1,22.76,10.81ZM32,17.19c0,.09-.25.13-.37.13h-6.5a6.57,6.57,0,0,1-.87,0A.42.42,0,0,1,24,17a2.08,2.08,0,0,1,0-.68.74.74,0,0,1,.8-.62H28c1.06,0,2.11,0,3.17,0A1,1,0,0,1,32,17.19Zm-21.88-.1c.78-1.3,1.5-2.64,2.35-3.89A5.44,5.44,0,0,1,17,10.81H18c0,.07,0,.1,0,.12a15.54,15.54,0,0,0-2.49,3.54q-.78,1.25-1.53,2.52a.61.61,0,0,1-.6.35c-1,0-2,0-3,0l-.31,0A1,1,0,0,1,10.12,17.09Zm36,10.12c.56,0,.57,0,.57.57q0,6.92,0,13.85c0,.64,0,1.28,0,1.92A1.57,1.57,0,0,1,45,45.2H11.21a1.64,1.64,0,0,1-1.85-1.87q0-7.79,0-15.57c0-.56,0-.56.54-.56,4,0,7.93,0,11.89,0,.41,0,.51.13.5.52,0,1.06,0,1.07-1.06,1.07H12.11a1.93,1.93,0,0,0-.83.18c-.31.16-.35.5-.35.83q0,4.14,0,8.29,0,2.22,0,4.44c0,.76.3,1.07,1.05,1.07H43.89c.92,0,1.17-.26,1.17-1.19q0-6.24,0-12.49c0-.87-.25-1.13-1.1-1.14-3.25,0-6.5,0-9.75,0-.41,0-.51-.12-.51-.52,0-1.07,0-1.07,1.07-1.07ZM32,31.53c0,1.24,0,2.48,0,3.72A1.59,1.59,0,0,1,30.34,37Q28,37,25.62,37A1.58,1.58,0,0,1,24,35.3c0-2.56,0-5.12,0-7.68,0-.32.1-.41.41-.41q3.61,0,7.21,0c.38,0,.46.13.46.48,0,1.28,0,2.56,0,3.84Zm-6.39,7.14c1.61,0,3.22,0,4.84,0a3.28,3.28,0,0,0,3.23-3.27c0-1.48,0-3,0-4.44,0-.38.12-.47.48-.47,2.92,0,5.84,0,8.76,0,.45,0,.45.23.45.55q0,4.54,0,9.09c0,.43,0,.85,0,1.28s-.09.53-.51.53c-3.42,0-6.84,0-10.27,0H28q-7.43,0-14.87,0c-.39,0-.53-.09-.53-.51q0-5.22,0-10.45c0-.39.13-.49.51-.49q4.34,0,8.68,0c.4,0,.52.11.51.52,0,1.41,0,2.83,0,4.24A3.27,3.27,0,0,0,25.64,38.67ZM41.59,25.2a.66.66,0,0,1-.62.32l-26,0a.72.72,0,0,1-.52-.24c-1.37-1.93-2.71-3.88-4.06-5.82-.07-.1-.13-.22-.23-.39H45.83c-.11.18-.17.29-.24.38C44.25,21.35,42.91,23.27,41.59,25.2ZM26.65,29.34a1.92,1.92,0,0,0,0,2.84,1.43,1.43,0,0,1,.54,1.37c0,.15,0,.29,0,.44h0c0,.35,0,.69,0,1s.11.38.37.37.61,0,.91,0,.38-.09.37-.37c0-.6,0-1.2,0-1.8a1,1,0,0,1,.41-.91,2,2,0,1,0-2.58-3Z"/></svg>