<svg id="Layer_1" data-name="Layer 1" xmlns="http://www.w3.org/2000/svg" viewBox="0 0 56 56"><defs><style>.cls-1{fill:none;stroke:#004866;stroke-linejoin:round;}</style></defs><title>achievements</title><path d="M46.89,37.36c-1.55.94-3.13,1.84-4.74,2.68a1.43,1.43,0,0,0,0,2.6c.31.16.6.35,1,.61l-.39.26a11.45,11.45,0,0,1-18.66-10,10.85,10.85,0,0,1,3.75-7.08,11.1,11.1,0,0,1,9.73-2.67,10.85,10.85,0,0,1,7.71,5.42,19.37,19.37,0,0,1,1.14,2.61c.24.6.53,1.08,1.24,1.17A1.4,1.4,0,0,0,49.26,31a13.8,13.8,0,0,0-8.08-9.14,13.63,13.63,0,0,0-12.37.48A13.58,13.58,0,0,0,21.26,36a13.19,13.19,0,0,0,5.31,9.9,14.05,14.05,0,0,0,13.19,2.43A13.39,13.39,0,0,0,45.41,45a.51.51,0,0,1,.76-.1,7.69,7.69,0,0,0,1,.59,1.38,1.38,0,0,0,2.05-1.27c0-1.85,0-3.69,0-5.54A1.51,1.51,0,0,0,46.89,37.36Zm-34.54-.73c-.29.2-.63.35-1,.54a10.94,10.94,0,0,1-.15-4.08,10.78,10.78,0,0,1,3.32-6.37,11.37,11.37,0,0,1,9.79-3.07,1.19,1.19,0,0,0,.76-.22c.75-.52,1.47-1.08,2.21-1.62a3.41,3.41,0,0,1,.32-.18l-.54-.22a13.75,13.75,0,0,0-6.3-.65A14.22,14.22,0,0,0,8.46,37.43c.07.42.3.93.15,1.26s-.7.49-1.08.71a1.4,1.4,0,0,0,0,2.61l4.82,2.71a1.44,1.44,0,0,0,2.24-1.28c0-1.85,0-3.69,0-5.54A1.44,1.44,0,0,0,12.35,36.64Zm13-24.08c1.68,1,3.37,2,5.05,2.93a1.32,1.32,0,0,0,1.43,0,1.49,1.49,0,0,0,.69-1.35c0-.34,0-.69,0-1.08a3.93,3.93,0,0,1,.42.1,11,11,0,0,1,6.44,5.94c.31.69.62,1.28,1.46,1.38a1.39,1.39,0,0,1,.37.15l1.9.86c0-.28-.07-.45-.1-.62a14.59,14.59,0,0,0-1.68-4.28,14.28,14.28,0,0,0-7.49-6.17c-.41-.15-1-.19-1.19-.49s-.11-.84-.11-1.27a1.46,1.46,0,0,0-2.27-1.37c-1.64,1-3.3,1.9-4.94,2.87A1.39,1.39,0,0,0,25.36,12.56Zm7.88,31.67A14,14,0,0,0,36.72,33a13.79,13.79,0,0,0-3.64-7.76.62.62,0,0,0-.53-.14c-.65.23-1.29.51-1.92.79a4.77,4.77,0,0,0-.58.37,11.34,11.34,0,0,1,0,17.14,9.22,9.22,0,0,0,2.29,1.08A.74.74,0,0,0,33.24,44.22Zm-8.32,1.87a.81.81,0,0,0-.48-.11c-.44,0-.88.1-1.32.12a11.87,11.87,0,0,1-3.52-.34,1.38,1.38,0,0,0-1.49.45A1.42,1.42,0,0,0,19,48.54a14,14,0,0,0,6.64.12c.64-.14,1.26-.35,2-.56l-.32-.27C26.48,47.25,25.71,46.66,24.92,46.09ZM18.31,19.75a11.94,11.94,0,0,1,2.59-4,1.38,1.38,0,0,0,0-2,1.45,1.45,0,0,0-2.1.08,14,14,0,0,0-2.81,4,12.72,12.72,0,0,0-1.1,3.58C16,21,17,20.55,18,20.12A.68.68,0,0,0,18.31,19.75ZM32.54,37c.08-.7.18-1.39.25-2.09,0-.48,0-.53-.52-.4a11.22,11.22,0,0,1-5.09.3c-.62-.11-1.24-.25-2-.42.12.94.23,1.77.33,2.61a.55.55,0,0,0,.51.51,14.64,14.64,0,0,0,6.08,0A.53.53,0,0,0,32.54,37Zm7.73-11.11s-.06.07-.07.09a11.87,11.87,0,0,1-2.43,5,.84.84,0,0,0-.11.56c.09.89.2,1.77.3,2.66,0,.12,0,.24.06.4a1.15,1.15,0,0,0,.21-.1A13.82,13.82,0,0,0,42.65,28a.59.59,0,0,0-.15-.53c-.65-.51-1.33-1-2-1.45A.64.64,0,0,0,40.28,25.94ZM19.65,34.44a1.91,1.91,0,0,0,.32.18c0-.16,0-.26,0-.36.1-.88.19-1.77.32-2.65a.88.88,0,0,0-.21-.76,11,11,0,0,1-2.22-4.4c0-.18-.11-.35-.17-.53l-.16-.1-2,1.6a.52.52,0,0,0-.16.66A14.31,14.31,0,0,0,19.65,34.44Z"/><path class="cls-1" d="M46.89,37.36c-1.55.94-3.13,1.84-4.74,2.68a1.43,1.43,0,0,0,0,2.6c.31.16.6.35,1,.61l-.39.26a11.45,11.45,0,0,1-18.66-10,10.85,10.85,0,0,1,3.75-7.08,11.1,11.1,0,0,1,9.73-2.67,10.85,10.85,0,0,1,7.71,5.42,19.37,19.37,0,0,1,1.14,2.61c.24.6.53,1.08,1.24,1.17A1.4,1.4,0,0,0,49.26,31a13.8,13.8,0,0,0-8.08-9.14,13.63,13.63,0,0,0-12.37.48A13.58,13.58,0,0,0,21.26,36a13.19,13.19,0,0,0,5.31,9.9,14.05,14.05,0,0,0,13.19,2.43A13.39,13.39,0,0,0,45.41,45a.51.51,0,0,1,.76-.1,7.69,7.69,0,0,0,1,.59,1.38,1.38,0,0,0,2.05-1.27c0-1.85,0-3.69,0-5.54A1.51,1.51,0,0,0,46.89,37.36Zm-34.54-.73c-.29.2-.63.35-1,.54a10.94,10.94,0,0,1-.15-4.08,10.78,10.78,0,0,1,3.32-6.37,11.37,11.37,0,0,1,9.79-3.07,1.19,1.19,0,0,0,.76-.22c.75-.52,1.47-1.08,2.21-1.62a3.41,3.41,0,0,1,.32-.18l-.54-.22a13.75,13.75,0,0,0-6.3-.65A14.22,14.22,0,0,0,8.46,37.43c.07.42.3.93.15,1.26s-.7.49-1.08.71a1.4,1.4,0,0,0,0,2.61l4.82,2.71a1.44,1.44,0,0,0,2.24-1.28c0-1.85,0-3.69,0-5.54A1.44,1.44,0,0,0,12.35,36.64Zm13-24.08c1.68,1,3.37,2,5.05,2.93a1.32,1.32,0,0,0,1.43,0,1.49,1.49,0,0,0,.69-1.35c0-.34,0-.69,0-1.08a3.93,3.93,0,0,1,.42.1,11,11,0,0,1,6.44,5.94c.31.69.62,1.28,1.46,1.38a1.39,1.39,0,0,1,.37.15l1.9.86c0-.28-.07-.45-.1-.62a14.59,14.59,0,0,0-1.68-4.28,14.28,14.28,0,0,0-7.49-6.17c-.41-.15-1-.19-1.19-.49s-.11-.84-.11-1.27a1.46,1.46,0,0,0-2.27-1.37c-1.64,1-3.3,1.9-4.94,2.87A1.39,1.39,0,0,0,25.36,12.56Zm7.88,31.67A14,14,0,0,0,36.72,33a13.79,13.79,0,0,0-3.64-7.76.62.62,0,0,0-.53-.14c-.65.23-1.29.51-1.92.79a4.77,4.77,0,0,0-.58.37,11.34,11.34,0,0,1,0,17.14,9.22,9.22,0,0,0,2.29,1.08A.74.74,0,0,0,33.24,44.22Zm-8.32,1.87a.81.81,0,0,0-.48-.11c-.44,0-.88.1-1.32.12a11.87,11.87,0,0,1-3.52-.34,1.38,1.38,0,0,0-1.49.45A1.42,1.42,0,0,0,19,48.54a14,14,0,0,0,6.64.12c.64-.14,1.26-.35,2-.56l-.32-.27C26.48,47.25,25.71,46.66,24.92,46.09ZM18.31,19.75a11.94,11.94,0,0,1,2.59-4,1.38,1.38,0,0,0,0-2,1.45,1.45,0,0,0-2.1.08,14,14,0,0,0-2.81,4,12.72,12.72,0,0,0-1.1,3.58C16,21,17,20.55,18,20.12A.68.68,0,0,0,18.31,19.75ZM32.54,37c.08-.7.18-1.39.25-2.09,0-.48,0-.53-.52-.4a11.22,11.22,0,0,1-5.09.3c-.62-.11-1.24-.25-2-.42.12.94.23,1.77.33,2.61a.55.55,0,0,0,.51.51,14.64,14.64,0,0,0,6.08,0A.53.53,0,0,0,32.54,37Zm7.73-11.11s-.06.07-.07.09a11.87,11.87,0,0,1-2.43,5,.84.84,0,0,0-.11.56c.09.89.2,1.77.3,2.66,0,.12,0,.24.06.4a1.15,1.15,0,0,0,.21-.1A13.82,13.82,0,0,0,42.65,28a.59.59,0,0,0-.15-.53c-.65-.51-1.33-1-2-1.45A.64.64,0,0,0,40.28,25.94ZM19.65,34.44a1.91,1.91,0,0,0,.32.18c0-.16,0-.26,0-.36.1-.88.19-1.77.32-2.65a.88.88,0,0,0-.21-.76,11,11,0,0,1-2.22-4.4c0-.18-.11-.35-.17-.53l-.16-.1-2,1.6a.52.52,0,0,0-.16.66A14.31,14.31,0,0,0,19.65,34.44Z"/></svg>