<svg xmlns="http://www.w3.org/2000/svg" viewBox="0 0 142 38.7"><path fill="#EEB644" d="M64.9 31.1h21.2l6.8 6.2V1.5l-28 29.6zm21-5.8h-7l7-7.6v7.6z"/><path fill="#F7D445" d="M92.8 23.4l-6.9-5.7 7-16.2-.1 21.9m-27.9 7.8l28-7.8-6.8 7.8H64.9"/><path d="M106.7 16l-.2 3.7h-.7c-2.6 0-4 1.4-4 4.4v3.7H98V16.1h3.7v2.2c.8-1.4 2.1-2.4 4-2.4.5 0 .7 0 1 .1zm12.5 6.9h-8.6c.3 1.4 1.3 2.3 2.5 2.3.9 0 1.9-.2 2.5-1.4l3.3.7c-1 2.5-3.1 3.7-5.8 3.7-3.4 0-6.2-2.5-6.2-6.2s2.8-6.2 6.2-6.2c3.3 0 6 2.4 6.1 6.2v.9zm-8.5-2.3h4.8c-.4-1.3-1.3-1.8-2.4-1.8-1-.1-2.1.6-2.4 1.8zm22.4 7.2h-3.7v-.9c-.9.8-2.1 1.3-3.6 1.3-3.1 0-5.7-2.5-5.7-6.2s2.6-6.2 5.7-6.2c1.5 0 2.7.5 3.6 1.3v-.9h3.7v11.6zm-3.8-5.9c0-1.8-1.4-3-2.9-3-1.6 0-2.8 1.2-2.8 3s1.2 3 2.8 3c1.6.1 2.9-1.2 2.9-3zm6 5.9V10.9h3.7v16.8h-3.7zM11.5 22.9l3.4.7c-.6 2.8-3 4.5-5.9 4.5-3.5 0-6.3-2.5-6.3-6.2s2.9-6.2 6.3-6.2c2.8 0 5.3 1.7 5.9 4.5l-3.5.8c-.3-1.4-1.3-2.1-2.5-2.1-1.7 0-2.8 1.2-2.8 2.9s1.1 2.9 2.8 2.9c1.2.2 2.2-.4 2.6-1.8zm17 4.9h-3.7v-.9c-.9.8-2.1 1.3-3.6 1.3-3.1 0-5.7-2.5-5.7-6.2s2.6-6.2 5.7-6.2c1.5 0 2.7.5 3.6 1.3v-.9h3.7v11.6zM24.8 22c0-1.8-1.3-3-2.8-3-1.6 0-2.8 1.2-2.8 3s1.2 3 2.8 3c1.5 0 2.8-1.2 2.8-3zm8.8 2c.2 1 1.1 1.4 2.1 1.4s1.5-.4 1.5-.9c0-.4-.3-.7-1.2-.9l-2.4-.5c-2.2-.4-3.4-1.6-3.4-3.4 0-2.4 2.1-3.9 5-3.9s4.8 1.3 5.3 3.3l-3.4.7c-.1-.7-.8-1.4-1.9-1.4-1 0-1.3.5-1.3.9 0 .3.1.6.9.8l2.7.6c2.2.5 3.2 1.8 3.2 3.5 0 2.6-2.2 3.9-5.3 3.9-2.7 0-5.1-1-5.5-3.4l3.7-.7zm19.9-1.1H45c.3 1.4 1.2 2.2 2.5 2.2.9 0 1.9-.2 2.5-1.3l3.3.7c-1 2.5-3.1 3.6-5.8 3.6-3.4 0-6.1-2.5-6.1-6.2s2.8-6.2 6.2-6.2c3.3 0 5.9 2.4 6 6.2v1zm-8.4-2.2h4.8c-.3-1.2-1.3-1.8-2.3-1.8-1.1-.1-2.2.6-2.5 1.8zM57.8 24c.2 1 1.1 1.4 2.1 1.4s1.5-.4 1.5-.9c0-.4-.3-.7-1.2-.9l-2.4-.5c-2.2-.4-3.4-1.6-3.4-3.4 0-2.4 2.1-3.9 5-3.9s4.8 1.3 5.3 3.3l-3.4.7c-.1-.7-.8-1.4-1.9-1.4-1 0-1.3.5-1.3.9 0 .3.1.6.9.8l2.7.6c2.2.5 3.2 1.8 3.2 3.5 0 2.6-2.2 3.9-5.3 3.9-2.7 0-5.1-1-5.5-3.4l3.7-.7z" fill="#FFF"/></svg>