<?xml version="1.0" encoding="utf-8"?>
<!-- Generator: Adobe Illustrator 21.1.0, SVG Export Plug-In . SVG Version: 6.00 Build 0)  -->
<svg version="1.1" id="Layer_1" xmlns="http://www.w3.org/2000/svg" xmlns:xlink="http://www.w3.org/1999/xlink" x="0px" y="0px"
	 viewBox="0 0 137 148" style="enable-background:new 0 0 137 148;" xml:space="preserve">
<style type="text/css">
	.st0{fill:#FFFFFF;}
	.st1{fill:#F40C39;}
</style>
<path class="st0" d="M81.4,116.3c0,0-48.7-30.3-56.6-35.3c-1.5-0.9-2.6-1.3-4.4-0.2c-5.3,3.1-11.8,1.8-15.7-2.7
	c-4-4.6-4.4-11-0.8-15.9c3.4-4.8,9.6-6.6,15.1-4.4c5.6,2.2,8.9,7.7,7.8,13.8c-0.4,2.1,0.5,3,1.9,4c17.1,12.4,54,37.6,54.8,38.4
	C83.2,114.2,81.4,116.3,81.4,116.3z"/>
<path class="st0" d="M123.1,32.9C114.3,18.3,99.8,7.5,83.2,3.3c-0.7-0.2-1.7,0.4-2,1.1c-4.5,8.2-9,16.2-10.7,19.3
	c-0.2,0.4-0.3,1-0.1,1.4c0.2,0.5,0.6,0.8,1,1c13.2,4.7,23.3,12.1,31.1,22.7c0.3,0.4,0.7,0.6,1.1,0.7c0.1,0,0.2,0,0.2,0
	c0.4,0,0.7-0.1,1-0.4c2.2-1.8,6.7-5.3,11.8-9.3l6.1-4.8C123.4,34.5,123.5,33.6,123.1,32.9z"/>
<path class="st0" d="M134.4,65.4c-0.7-5.7-2.2-11.3-4.4-16.6c-0.2-0.4-0.7-0.7-1.2-0.8c-0.4-0.2-1.1,0-1.6,0.2
	c-0.4,0.2-0.7,0.4-0.7,0.4l-5.1,3.3c-3.5,2.3-7,4.6-10.6,6.8c-1.5,1-3.1,2.4-1.8,5.4c3.4,7.5,5,14.9,4.7,22.3
	c-0.1,3.3-0.5,6.5-0.9,9.9c-0.2,1.6-0.4,3.2-0.5,4.8c-0.1,0.8,0.4,1.5,1.2,1.8l11.2,3.3c0.2,0,0.3,0.1,0.5,0.1
	c0.6,0,1.2-0.3,1.5-0.9C133.5,93.2,136.2,79.3,134.4,65.4z"/>
<path class="st1" d="M117.8,119l-11.1-6.5c-1.5-0.9-3.5-0.4-4.5,1c-6.7,10.2-15.6,18.1-27,24.3c-1,0.5-1.6,1.5-1.7,2.5
	c-0.1,0.8,0.1,1.6,0.6,2.3c0.5,1.2,1.8,2,3.1,2c0.2,0,0.4,0,0.6,0c15.3-2.6,29.4-9.6,40.8-20.4c0.8-0.7,1.1-1.8,1-2.8
	C119.3,120.5,118.7,119.6,117.8,119z"/>
</svg>
