<?xml version="1.0" encoding="utf-8"?>
<!-- Generator: Adobe Illustrator 21.1.0, SVG Export Plug-In . SVG Version: 6.00 Build 0)  -->
<svg version="1.1" id="Layer_1" xmlns="http://www.w3.org/2000/svg" xmlns:xlink="http://www.w3.org/1999/xlink" x="0px" y="0px"
	 viewBox="0 0 173 148" style="enable-background:new 0 0 173 148;" xml:space="preserve">
<style type="text/css">
	.st0{fill:#589AE5;}
</style>
<g>
	<path class="st0" d="M93.2,53c0.9-0.7,1.8-1.3,2.6-2c5-4.5,9.9-9.2,15-13.5c5.8-4.9,11.8-9.7,17.9-14.4c1.8-1.4,4-2.6,6.1-3.4
		c4.3-1.6,9,0.4,10.2,5c1.5,5.8-3.6,10.1-7.5,13.6c-9,8-18,16-27.1,24c-0.4,0.3-0.7,0.6-1.1,0.9c0.1,0.1,0.1,0.2,0.2,0.3
		c0.5-0.3,1-0.5,1.4-0.8c6.9-4.8,13.7-9.7,20.6-14.5c2.8-1.9,5.5-4,8.4-5.7c1.5-0.9,3.3-1.5,5.1-1.8c4.6-0.8,8.3,2.6,8.1,7.3
		c-0.2,5.5-5.3,10.1-9.3,13.3c-9.7,7.7-19.6,15.2-30.4,21.3c-0.6,0.3-1.2,0.8-1.7,1.4c0.7-0.2,1.4-0.3,2.1-0.5
		c7.4-2.7,15-5.3,22.3-8.3c5.2-2.1,12.2-3.2,16.4,1.7c1,1.2,1.7,2.8,1.4,4.4c-0.3,1.8-1.6,3.2-2.9,4.4c-7.2,6.5-16.3,8.9-24.9,12.9
		c-1.9,0.9-3.9,1.6-5.9,2.3c-5.6,2.1-10.7,4.9-15.6,8.4c-9.8,7.1-20,13.4-31,18.4c-2.3,1-4.6,2-6.9,2.7c-6,1.8-10.4,5.7-14.3,10.4
		c-0.1,0.1-0.2,0.3-0.3,0.5c-2.6,3.4-3.6,3.6-6.9,0.8c-2-1.7-3.9-3.5-5.8-5.3c-7-6.6-13.9-13.3-20.9-19.9c-2.5-2.3-2.6-3.3-0.7-6.2
		c3.3-5,4.8-10.6,5.7-16.4c1.3-8.3,2.2-16.6,3.5-24.8c0.4-2.5,1.2-4.9,2.1-7.2c3.3-8.3,6.8-16.4,9.9-24.7c1.8-5,2.9-10.3,4.3-15.4
		c0.4-1.4,0.8-2.9,1.5-4.2c2.4-4,7.4-4.7,11-1.7c2.9,2.4,4.3,5.7,5.2,9.2c3.1,11.5-3.2,20.1-7.3,30.3c-0.6,1.5-1.2,3.1-1,4.8
		c4.8,0.3,11.2-5.2,14.2-8.4c4.3-4.5,8.4-9.2,12.6-13.8c5.8-6.4,11.4-13,17.3-19.3c3.1-3.3,6.4-6.4,9.9-9.4
		c4.4-3.8,14.2-5.6,16.4,1.5c1.2,3.9-1.8,7.5-3.9,10.5c-5.3,7.5-11.3,14.4-17.5,21.1c-2.5,2.7-5,5.5-7.5,8.3
		c-0.5,0.6-0.9,1.3-1.4,1.9C93,52.8,93.1,52.9,93.2,53z"/>
</g>
</svg>
