<?xml version="1.0" encoding="utf-8"?>
<!-- Generator: Adobe Illustrator 21.1.0, SVG Export Plug-In . SVG Version: 6.00 Build 0)  -->
<svg version="1.1" id="Layer_1" xmlns="http://www.w3.org/2000/svg" xmlns:xlink="http://www.w3.org/1999/xlink" x="0px" y="0px"
	 viewBox="0 0 200 200" style="enable-background:new 0 0 200 200;" xml:space="preserve">
<g>
	<path d="M98.2,1.4c-51.5,0-93.7,40.1-97.7,91l52.5,21.9c4.5-3.1,9.8-4.9,15.6-4.9c0.5,0,1,0,1.5,0l23.4-34.2c0-0.2,0-0.3,0-0.5
		c0-20.6,16.6-37.3,37-37.3c20.4,0,37,16.7,37,37.3c0,20.6-16.6,37.3-37,37.3c-0.3,0-0.6,0-0.8,0l-33.3,24c0,0.4,0,0.9,0,1.3
		c0,15.4-12.4,28-27.7,28c-13.4,0-24.7-9.7-27.2-22.5L3.9,127.2c11.6,41.5,49.4,72,94.3,72c54.1,0,98-44.3,98-98.9
		C196.3,45.7,152.4,1.4,98.2,1.4"/>
	<path d="M62,151.5l-12-5c2.1,4.5,5.8,8.2,10.7,10.3c10.6,4.5,22.8-0.6,27.2-11.3c2.1-5.2,2.2-10.9,0-16.1
		c-2.1-5.2-6.1-9.2-11.2-11.4c-5.1-2.1-10.6-2.1-15.4-0.2l12.4,5.2c7.8,3.3,11.5,12.3,8.3,20.2C78.8,151,69.8,154.7,62,151.5"/>
	<path d="M112.1,74.7c0-10.3,8.3-18.7,18.5-18.7c10.2,0,18.5,8.4,18.5,18.7s-8.3,18.7-18.5,18.7C120.4,93.4,112.1,85.1,112.1,74.7
		 M155.2,74.8c0-13.7-11.1-24.9-24.6-24.9c-13.6,0-24.6,11.2-24.6,24.9c0,13.7,11.1,24.9,24.6,24.9
		C144.2,99.6,155.2,88.5,155.2,74.8"/>
	<path d="M188.9,28.7h1.7c1.1,0,1.8-0.7,1.8-1.6c0-0.9-0.5-1.5-1.8-1.5h-1.7V28.7z M190.8,24.1c2.6,0,3.4,1.4,3.4,2.9
		c0,1.4-0.8,2.3-1.8,2.7l2.3,4.4h-1.9l-1.9-3.9h-2V34h-1.6v-9.9H190.8z M182.4,29.2c0,5.2,3.7,8.5,8.3,8.5c4.5,0,8.2-3.3,8.2-8.5
		c0-5.2-3.7-8.4-8.2-8.4C186.1,20.8,182.4,24.1,182.4,29.2 M200.6,29.2c0,6.2-4.6,10.1-9.9,10.1c-5.3,0-9.9-3.9-9.9-10.1
		c0-6.2,4.6-10.1,9.9-10.1C195.9,19.2,200.6,23,200.6,29.2"/>
</g>
</svg>
