<?xml version="1.0" encoding="utf-8"?>
<!-- Generator: Adobe Illustrator 21.1.0, SVG Export Plug-In . SVG Version: 6.00 Build 0)  -->
<svg version="1.1" id="Layer_1" xmlns="http://www.w3.org/2000/svg" xmlns:xlink="http://www.w3.org/1999/xlink" x="0px" y="0px"
	 viewBox="0 0 200 200" style="enable-background:new 0 0 200 200;" xml:space="preserve">
<style type="text/css">
	.st0{fill-rule:evenodd;clip-rule:evenodd;fill:#FFFFFF;}
</style>
<path id="Logo" class="st0" d="M195.9,48.9c1.4-4.6,0-8-6.6-8h-21.8c-5.5,0-8.1,2.9-9.5,6.2c0,0-11.1,27-26.8,44.5
	c-5.1,5.1-7.4,6.7-10.1,6.7c-1.4,0-3.4-1.6-3.4-6.2V48.9c0-5.5-1.6-8-6.2-8H77.4c-3.5,0-5.5,2.6-5.5,5c0,5.2,7.8,6.5,8.6,21.2v32.1
	c0,7-1.3,8.3-4,8.3c-7.4,0-25.3-27.1-36-58.1c-2.1-6-4.2-8.5-9.7-8.5H9c-6.2,0-7.5,2.9-7.5,6.2c0,5.8,7.4,34.4,34.4,72.2
	c18,25.8,43.3,39.8,66.4,39.8c13.8,0,15.6-3.1,15.6-8.5v-19.5c0-6.2,1.3-7.5,5.7-7.5c3.2,0,8.8,1.6,21.7,14.1
	c14.8,14.8,17.2,21.4,25.5,21.4h21.8c6.2,0,9.3-3.1,7.5-9.2c-2-6.1-9-15-18.4-25.5c-5.1-6-12.7-12.5-15-15.7c-3.2-4.2-2.3-6,0-9.7
	C166.6,99,193.2,61.6,195.9,48.9z"/>
</svg>
